<?xml version="1.0" encoding="UTF-8"?>
<svg version="1.1" viewBox="0 0 2048 926" width="785" height="355" xmlns="http://www.w3.org/2000/svg">
<path transform="translate(0)" d="m0 0h2048v926h-2048z" fill="#181A31"/>
<path transform="translate(255,280)" d="m0 0h14l15 4 16 8 15 9 32 19 25 15 22 13 35 21 22 13 18 11 10 9 7 11 4 10 2 10v14l-4 15-8 14-10 10-17 10-28 15-24 13-18 10-68 37-25 14-14 5-5 1h-19l-15-5-11-7-10-10-6-10-4-12-1-5-1-35v-93l1-85 3-12 7-13 7-8 11-8 11-5z" fill="#68E720"/>
<path transform="translate(441,223)" d="m0 0h12l16 4 12 6 12 11 7 9 6 14 4 22 21 13 12 7 10 8 10 9 3 2v2h2l9 11 8 11 9 16 7 17 6 25 1 7v34l-4 21-6 18-9 19-8 12-7 9-9 10-8 8-12 9-26 16-20 13-23 14-19 12-20 12-21 13-24 15-15 9-28 17-20 12-21 13-27 15-10 4-15 3h-31l-23-4-18-6-17-8-18-12-13-11-10-10-10-13-12-22-7-19-4-17-2-15v-126l10 2 12 2 14-1 10-3h4l1 128 3 14 6 16 8 14 9 11 7 7 14 10 15 7 15 4 11 2h17l18-4 16-7 19-12 24-15 22-14 48-30 38-24 17-11 48-30 27-18 7-6 12-16 8-16 6-20 1-6v-21l-3-17-5-15-9-16-11-14-9-8-16-10-19-11-5 2-6 4-13 5-6 1h-12l-12-2-15-6-9-6-11-11-8-16-3-11v-19l3-11 7-14 6-8 14-11 8-4z" fill="#68E720"/>
<path transform="translate(222,150)" d="m0 0h28l19 3 20 6 19 9 28 17 26 15 28 17 10 6-1 3-8 7-8 10-8 17-1 4-5-1-40-24-44-26-14-7-19-5-7-1h-14l-19 3-16 6-11 6-11 9-6 5-10 13-7 12-6 16-3 14-1 30v23l1 5 10 6 11 10 6 10 5 12 2 8v20l-4 12-6 11-9 10-8 7-14 7-11 3h-15l-15-4-12-6-10-9-8-9-6-13-3-11v-17l4-15 6-11 9-10 8-7 7-4h2v-52l2-18 5-20 7-18 8-15 10-14 12-13 10-10 17-12 23-11 21-6z" fill="#68E720"/>
<path transform="translate(1356,375)" d="m0 0h45l5 18 9 36 1 1 13-52 1-3h42l5 18 9 34v4h2l1-10 11-43 1-3h45l-2 9-25 80-7 22h-45l-3-6-12-43v-4h-2l-1 8-12 43-1 2h-45l-3-6-15-48-17-55z" fill="#FEFEFE"/>
<path transform="translate(1041,375)" d="m0 0h45l8 11 26 39v2h2l-1-6v-46h46v110l-1 1h-45l-15-22-16-24-3-5-1 51h-45l-1-6z" fill="#FEFEFE"/>
<path transform="translate(1892,375)" d="m0 0h102v34h-57l1 6 51 1 1 1v29l-52 1 1 5 55 1 1 32-1 1h-102z" fill="#FEFEFE"/>
<path transform="translate(1215,375)" d="m0 0h102v33l-1 1h-56l1 6 51 1 1 20-1 10-51 1v6h56l1 32-1 1h-102z" fill="#FEFEFE"/>
<path transform="translate(870,375)" d="m0 0h45l1 65 4 8 4 3 3 1h11l6-4 3-4 2-7 1-62h45v68l-5 16-7 11-9 8-12 6-15 4h-30l-17-5-12-7-7-7-6-10-4-10-1-5-1-17v-51z" fill="#FEFEFE"/>
<path transform="translate(1608,375)" d="m0 0h49l5 12 16 41 20 52 2 6h-48l-3-7-1-4-32-1-1 7-1 5h-49l3-10 16-41 18-47 5-12z" fill="#FEFEFE"/>
<path transform="translate(1718,375)" d="m0 0h48l8 25 11 37 1 1 5-19 11-37 3-7h48l-3 9-15 40-16 41-7 19-2 2h-49l-5-10-16-42-17-44-5-13z" fill="#FEFEFE"/>
<path transform="translate(711,375)" d="m0 0h119v33l-1 1h-35v77h-46v-77h-36l-1-4z" fill="#FEFEFE"/>
<path transform="translate(441,248)" d="m0 0h11l13 4 10 9 6 10 2 7v14l-5 12-8 9-8 5-10 3h-8l-12-3-10-7-6-8-4-9-1-4v-13l5-12 7-8 5-4 9-4z" fill="#181A32"/>
<path transform="translate(108,361)" d="m0 0h16l10 4 10 9 7 14 1 4v10l-3 10-6 9-8 7-8 4-3 1h-15l-11-4-8-6-7-10-3-9v-15l5-12 9-10 10-5z" fill="#181A32"/>
<path transform="translate(1420,604)" d="m0 0h16l11 1 9 4 5 4 5 10v15l-4 8-8 7-5 2-9 1h-25v-51z" fill="#FEFEFE"/>
<path transform="translate(1315,605)" d="m0 0h17l13 19 10 14v-33h13v50l-5 1h-8l-5-3-10-15-10-14v-2h-2v33l-1 1h-11l-1-1z" fill="#FEFEFE"/>
<path transform="translate(1060,605)" d="m0 0h16l6 8 13 19 4 5 1-32h13v50h-16l-6-7-8-12-9-13-1 32-2 1h-10l-1-1z" fill="#FEFEFE"/>
<path transform="translate(1700,604)" d="m0 0h17l8 3 5 5 3 7-1 2h-12l-4-5-2-1h-12l-4 3 1 3 8 3 17 4 8 5 2 3v10l-5 6-5 3-16 2-13-2-5-3-5-6-1-6 2-1h8l7 6 10 1 8-2 2-2v-3l-9-3-18-4-6-4-3-5v-8l4-6 4-3z" fill="#FEFEFE"/>
<path transform="translate(801,604)" d="m0 0h17l8 3 5 4 3 6v4h-12l-5-5-2-1h-12l-3 2v4l8 3 14 3 9 4 4 5 1 7-3 6-6 5-6 2h-21l-8-3-5-6-2-7 1-1h11l4 5 7 2 10-1 4-2-1-5-23-5-8-4-3-5v-11l4-5z" fill="#FEFEFE"/>
<path transform="translate(1793,604)" d="m0 0h16l9 3 6 7 2 6-1 1h-12l-4-5-2-1h-12l-4 3 1 3 7 3 15 3 8 4 5 6v8l-4 6-7 4-4 1h-20l-8-3-5-5-2-4v-5h11l4 5 8 2 10-1 4-3v-3l-9-3-15-3-8-4-3-3-1-3v-8l3-5 5-4z" fill="#FEFEFE"/>
<path transform="translate(971,604)" d="m0 0h30l13 1v9h-31v11h28v9l-1 1h-27v11h31v10h-42l-2-4v-47z" fill="#FEFEFE"/>
<path transform="translate(1227,605)" d="m0 0h44v9h-31v11h27l1 1v8l-2 1h-26v11h31v10h-43l-1-1z" fill="#FEFEFE"/>
<path transform="translate(1596,605)" d="m0 0h44v9h-31v11h27l1 1v8l-1 1h-27v11h31l1 9-1 1h-43l-1-1z" fill="#FEFEFE"/>
<path transform="translate(1943,604)" d="m0 0 16 1 8 9 5 6v2l5-5 9-11 1-1 15-1-1 4-9 10-8 10-4 7v19l-1 1-11 1-1-1-1-21-6-8-11-13z" fill="#FEFEFE"/>
<path transform="translate(902,604)" d="m0 0 26 1v9h-18v21l-1 20-5 1h-7l-1-1v-41h-19l-1-1v-8z" fill="#FEFEFE"/>
<path transform="translate(1510,605)" d="m0 0h13v41h31v10h-43l-1-1z" fill="#FEFEFE"/>
<path transform="translate(641,605)" d="m0 0h13v41h31v10h-43l-1-1z" fill="#FEFEFE"/>
<path transform="translate(1871,605)" d="m0 0h13v41h30l1 1v8l-1 1h-42l-1-1z" fill="#FEFEFE"/>
<path transform="translate(1428,614)" d="m0 0h13l7 3 4 4 1 2v14l-4 6-6 3h-15z" fill="#191E31"/>
<path transform="translate(728,605)" d="m0 0h13v50l-4 1h-9z" fill="#FEFEFE"/>
<path transform="translate(1632,422)" d="m0 0 2 2 5 19h-13l3-12z" fill="#1E2B30"/>
</svg>
